{"accessors":[{"bufferView":2,"componentType":5126,"count":5374,"max":[8.8626899719238281,20.304708480834961,5.8830881118774414],"min":[-8.4596309661865234,0.82640957832336426,-6.8110651969909668],"type":"VEC3"},{"bufferView":2,"byteOffset":64488,"componentType":5126,"count":5374,"max":[0.99985665082931519,0.99986487627029419,0.99999517202377319],"min":[-0.99986398220062256,-0.99969875812530518,-0.99996346235275269],"type":"VEC3"},{"bufferView":1,"componentType":5126,"count":5374,"max":[0.97795498371124268,0.97795498371124268],"min":[-0.5,-0.99477702379226685],"type":"VEC2"},{"bufferView":3,"componentType":5126,"count":5374,"max":[1,0.99986565113067627,0.99992167949676514,1],"min":[-1,-0.99999451637268066,-0.9999886155128479,-1],"type":"VEC4"},{"bufferView":0,"componentType":5125,"count":24576,"max":[5373],"min":[0],"type":"SCALAR"},{"bufferView":2,"byteOffset":128976,"componentType":5126,"count":177,"max":[1.5638501644134521,19.098703384399414,3.4696440696716309],"min":[-1.5649495124816895,16.51930046081543,2.5589947700500488],"type":"VEC3"},{"bufferView":2,"byteOffset":131100,"componentType":5126,"count":177,"max":[0.99986571073532104,0.99659436941146851,0.99956679344177246],"min":[-0.9998660683631897,-0.99659180641174316,-0.082500070333480835],"type":"VEC3"},{"bufferView":1,"byteOffset":42992,"componentType":5126,"count":177,"max":[0.97444301843643188,0.9724389910697937],"min":[0.034430999308824539,0.13737000524997711],"type":"VEC2"},{"bufferView":3,"byteOffset":85984,"componentType":5126,"count":177,"max":[1,0.99325025081634521,0.81440895795822144,1],"min":[-0.99928760528564453,-0.99325144290924072,-0.81422948837280273,-1],"type":"VEC4"},{"bufferView":0,"byteOffset":98304,"componentType":5125,"count":624,"max":[176],"min":[0],"type":"SCALAR"},{"bufferView":2,"byteOffset":133224,"componentType":5126,"count":467,"max":[4.5035862922668457,2.6957013607025146,2.8528599739074707],"min":[-4.5030956268310547,0.015961885452270508,-3.475628137588501],"type":"VEC3"},{"bufferView":2,"byteOffset":138828,"componentType":5126,"count":467,"max":[0.9992709755897522,0.99980860948562622,0.98002290725708008],"min":[-0.9990466833114624,-0.8833547830581665,-0.99118763208389282],"type":"VEC3"},{"bufferView":1,"byteOffset":44408,"componentType":5126,"count":467,"max":[0.98101902008056641,0.9793279767036438],"min":[0.0094950003549456596,-0.058021999895572662],"type":"VEC2"},{"bufferView":3,"byteOffset":88816,"componentType":5126,"count":467,"max":[0.99857348203659058,0.62450295686721802,0.18812774121761322,1],"min":[-0.99854469299316406,-0.66751277446746826,-0.99996572732925415,-1],"type":"VEC4"},{"bufferView":0,"byteOffset":100800,"componentType":5125,"count":2088,"max":[466],"min":[0],"type":"SCALAR"},{"bufferView":2,"byteOffset":144432,"componentType":5126,"count":84,"max":[4.1270270347595215,0.3135344386100769,2.3688480854034424],"min":[-4.1262702941894531,0.015961885452270508,-3.1437478065490723],"type":"VEC3"},{"bufferView":2,"byteOffset":145440,"componentType":5126,"count":84,"max":[0.79297780990600586,-0.57496529817581177,0.69397234916687012],"min":[-0.79128497838973999,-1.0000039339065552,-0.66547346115112305],"type":"VEC3"},{"bufferView":1,"byteOffset":48144,"componentType":5126,"count":84,"max":[0.94269299507141113,0.97667598724365234],"min":[0.057011999189853668,0.028860000893473625],"type":"VEC2"},{"bufferView":3,"byteOffset":96288,"componentType":5126,"count":84,"max":[0.99229800701141357,0.71943265199661255,0.46737059950828552,1],"min":[-0.99033677577972412,-0.77330732345581055,-0.10678469389677048,-1],"type":"VEC4"},{"bufferView":0,"byteOffset":109152,"componentType":5125,"count":288,"max":[83],"min":[0],"type":"SCALAR"},{"bufferView":2,"byteOffset":146448,"componentType":5126,"count":304,"max":[2.2870528697967529,15.239755630493164,2.5958380699157715],"min":[-2.2877473831176758,12.688754081726074,0.89635270833969116],"type":"VEC3"},{"bufferView":2,"byteOffset":150096,"componentType":5126,"count":304,"max":[0.99930393695831299,0.97468847036361694,0.99834626913070679],"min":[-0.99931967258453369,-0.96884721517562866,-0.9912872314453125],"type":"VEC3"},{"bufferView":1,"byteOffset":48816,"componentType":5126,"count":304,"max":[0.98083901405334473,0.98083901405334473],"min":[0.019161000847816467,0.019161000847816467],"type":"VEC2"},{"bufferView":3,"byteOffset":97632,"componentType":5126,"count":304,"max":[0.99999904632568359,0.24163849651813507,0.95480722188949585,1],"min":[-0.9999992847442627,-0.2051568329334259,-0.9991576075553894,-1],"type":"VEC4"},{"bufferView":0,"byteOffset":110304,"componentType":5125,"count":1800,"max":[303],"min":[0],"type":"SCALAR"}],"asset":{"generator":"Sketchfab (OSG glTF plugin)","version":"2.0"},"bufferViews":[{"buffer":0,"byteLength":117504,"byteOffset":0,"name":"ScalarBufferView","target":34962},{"buffer":0,"byteLength":51248,"byteOffset":117504,"byteStride":8,"name":"Vec2BufferView","target":34962},{"buffer":0,"byteLength":153744,"byteOffset":168752,"byteStride":12,"name":"Vec3BufferView","target":34962},{"buffer":0,"byteLength":102496,"byteOffset":322496,"byteStride":16,"name":"Vec4BufferView","target":34962}],"buffers":[{"byteLength":424992,"uri":"scene.bin"}],"images":[{"uri":"textures/subd_mario_tex1_baseColor.png"},{"uri":"textures/subd_mario_shoes_sole_baseColor.png"},{"uri":"textures/subd_mario_shoes_base_baseColor.png"},{"uri":"textures/subd_mario_cap_mark_baseColor.png"},{"uri":"textures/subd_mario_eye_baseColor.png"}],"materials":[{"doubleSided":true,"emissiveFactor":[0,0,0],"name":"subd_mario_tex1","pbrMetallicRoughness":{"baseColorFactor":[1,1,1,1],"baseColorTexture":{"index":0,"texCoord":0},"metallicFactor":0,"roughnessFactor":0.59999999999999998}},{"doubleSided":true,"emissiveFactor":[0,0,0],"name":"subd_mario_cap_mark","pbrMetallicRoughness":{"baseColorFactor":[1,1,1,1],"baseColorTexture":{"index":3,"texCoord":0},"metallicFactor":0,"roughnessFactor":0.59999999999999998}},{"doubleSided":true,"emissiveFactor":[0,0,0],"name":"subd_mario_shoes_base","pbrMetallicRoughness":{"baseColorFactor":[1,1,1,1],"baseColorTexture":{"index":2,"texCoord":0},"metallicFactor":0,"roughnessFactor":0.59999999999999998}},{"doubleSided":true,"emissiveFactor":[0,0,0],"name":"subd_mario_shoes_sole","pbrMetallicRoughness":{"baseColorFactor":[1,1,1,1],"baseColorTexture":{"index":1,"texCoord":0},"metallicFactor":0,"roughnessFactor":0.59999999999999998}},{"doubleSided":true,"emissiveFactor":[0,0,0],"name":"subd_mario_eye","pbrMetallicRoughness":{"baseColorFactor":[1,1,1,1],"baseColorTexture":{"index":4,"texCoord":0},"metallicFactor":0,"roughnessFactor":0.59999999999999998}}],"meshes":[{"primitives":[{"attributes":{"NORMAL":1,"POSITION":0,"TANGENT":3,"TEXCOORD_0":2},"indices":4,"material":0,"mode":4}]},{"primitives":[{"attributes":{"NORMAL":6,"POSITION":5,"TANGENT":8,"TEXCOORD_0":7},"indices":9,"material":1,"mode":4}]},{"primitives":[{"attributes":{"NORMAL":11,"POSITION":10,"TANGENT":13,"TEXCOORD_0":12},"indices":14,"material":2,"mode":4}]},{"primitives":[{"attributes":{"NORMAL":16,"POSITION":15,"TANGENT":18,"TEXCOORD_0":17},"indices":19,"material":3,"mode":4}]},{"primitives":[{"attributes":{"NORMAL":21,"POSITION":20,"TANGENT":23,"TEXCOORD_0":22},"indices":24,"material":4,"mode":4}]}],"nodes":[{"children":[1],"name":"RootNode (gltf orientation matrix)","rotation":[-0.70710678118654746,-0,-0,0.70710678118654757]},{"children":[2],"name":"RootNode (model correction matrix)"},{"children":[3],"matrix":[1,0,0,0,0,-4.3711390063094768e-08,0.999999999999999,0,0,-0.999999999999999,-4.3711390063094768e-08,0,0,0,0,1],"name":"Collada visual scene group"},{"children":[4,5,6,7,8],"name":""},{"mesh":0,"name":""},{"mesh":1,"name":""},{"mesh":2,"name":""},{"mesh":3,"name":""},{"mesh":4,"name":""}],"samplers":[{"magFilter":9729,"minFilter":9987,"wrapS":10497,"wrapT":10497}],"scene":0,"scenes":[{"name":"OSG_Scene","nodes":[0]}],"textures":[{"sampler":0,"source":0},{"sampler":0,"source":1},{"sampler":0,"source":2},{"sampler":0,"source":3},{"sampler":0,"source":4}]}
