{
    "accessors" : [
        {
            "bufferView" : 0, 
            "componentType" : 5123, 
            "count" : 2256, 
            "max" : [
                393
            ], 
            "min" : [
                0
            ], 
            "type" : "SCALAR"
        }, 
        {
            "bufferView" : 1, 
            "componentType" : 5126, 
            "count" : 394, 
            "max" : [
                0.7402705550193787, 
                5.706050395965576, 
                0.7402705550193787
            ], 
            "min" : [
                -0.7402706146240234, 
                0.0244063138961792, 
                -0.7402705550193787
            ], 
            "type" : "VEC3"
        }, 
        {
            "bufferView" : 2, 
            "componentType" : 5126, 
            "count" : 394, 
            "max" : [
                0.999603271484375, 
                1.0, 
                0.999603271484375
            ], 
            "min" : [
                -0.999603271484375, 
                -1.0, 
                -0.999603271484375
            ], 
            "type" : "VEC3"
        }, 
        {
            "bufferView" : 3, 
            "componentType" : 5126, 
            "count" : 394, 
            "max" : [
                0.968785285949707, 
                0.9991191625595093, 
                0.616852879524231, 
                1.0
            ], 
            "min" : [
                0.02688915841281414, 
                -0.9991195797920227, 
                -0.21290217339992523, 
                1.0
            ], 
            "type" : "VEC4"
        }, 
        {
            "bufferView" : 4, 
            "componentType" : 5126, 
            "count" : 394, 
            "max" : [
                0.8105976581573486, 
                0.4224433898925781
            ], 
            "min" : [
                0.6072355508804321, 
                0.02092444896697998
            ], 
            "type" : "VEC2"
        }, 
        {
            "bufferView" : 5, 
            "componentType" : 5123, 
            "count" : 2208, 
            "max" : [
                428
            ], 
            "min" : [
                0
            ], 
            "type" : "SCALAR"
        }, 
        {
            "bufferView" : 6, 
            "componentType" : 5126, 
            "count" : 429, 
            "max" : [
                0.926776647567749, 
                5.60250186920166, 
                0.926776647567749
            ], 
            "min" : [
                -0.926776647567749, 
                0.002501845359802246, 
                -0.926776647567749
            ], 
            "type" : "VEC3"
        }, 
        {
            "bufferView" : 7, 
            "componentType" : 5126, 
            "count" : 429, 
            "max" : [
                1.0, 
                0.9984740614891052, 
                1.0
            ], 
            "min" : [
                -1.0, 
                -1.0, 
                -1.0
            ], 
            "type" : "VEC3"
        }, 
        {
            "bufferView" : 8, 
            "componentType" : 5126, 
            "count" : 429, 
            "max" : [
                0.9999992251396179, 
                0.9856926202774048, 
                0.9999995231628418, 
                1.0
            ], 
            "min" : [
                -0.9999995231628418, 
                -0.9856913685798645, 
                -0.9999995827674866, 
                1.0
            ], 
            "type" : "VEC4"
        }, 
        {
            "bufferView" : 9, 
            "componentType" : 5126, 
            "count" : 429, 
            "max" : [
                0.8082679510116577, 
                0.9790756143629551
            ], 
            "min" : [
                0.020924385637044907, 
                0.17348873615264893
            ], 
            "type" : "VEC2"
        }
    ], 
    "asset" : {
        "generator" : "Khronos Blender glTF 2.0 exporter", 
        "version" : "2.0"
    }, 
    "bufferViews" : [
        {
            "buffer" : 0, 
            "byteLength" : 4512, 
            "byteOffset" : 0, 
            "target" : 34963
        }, 
        {
            "buffer" : 0, 
            "byteLength" : 4728, 
            "byteOffset" : 4512, 
            "target" : 34962
        }, 
        {
            "buffer" : 0, 
            "byteLength" : 4728, 
            "byteOffset" : 9240, 
            "target" : 34962
        }, 
        {
            "buffer" : 0, 
            "byteLength" : 6304, 
            "byteOffset" : 13968, 
            "target" : 34962
        }, 
        {
            "buffer" : 0, 
            "byteLength" : 3152, 
            "byteOffset" : 20272, 
            "target" : 34962
        }, 
        {
            "buffer" : 0, 
            "byteLength" : 4416, 
            "byteOffset" : 23424, 
            "target" : 34963
        }, 
        {
            "buffer" : 0, 
            "byteLength" : 5148, 
            "byteOffset" : 27840, 
            "target" : 34962
        }, 
        {
            "buffer" : 0, 
            "byteLength" : 5148, 
            "byteOffset" : 32988, 
            "target" : 34962
        }, 
        {
            "buffer" : 0, 
            "byteLength" : 6864, 
            "byteOffset" : 38136, 
            "target" : 34962
        }, 
        {
            "buffer" : 0, 
            "byteLength" : 3432, 
            "byteOffset" : 45000, 
            "target" : 34962
        }
    ], 
    "buffers" : [
        {
            "byteLength" : 48432, 
            "uri" : "fast.bin"
        }
    ], 
    "images" : [
        {
            "uri" : "Battery_UVW.png"
        }
    ], 
    "materials" : [
        {
            "name" : "BatteryBody", 
            "pbrMetallicRoughness" : {
                "baseColorFactor" : [
                    0.38951707466717167, 
                    0.38951707466717167, 
                    0.38951707466717167, 
                    1.0
                ], 
                "baseColorTexture" : {
                    "index" : 0
                }, 
                "metallicFactor" : 0.0
            }
        }, 
        {
            "name" : "upDownMat", 
            "pbrMetallicRoughness" : {
                "baseColorFactor" : [
                    0.5585534178995104, 
                    0.5585534178995104, 
                    0.5585534178995104, 
                    1.0
                ], 
                "baseColorTexture" : {
                    "index" : 0
                }, 
                "metallicFactor" : 0.0
            }
        }
    ], 
    "meshes" : [
        {
            "name" : "Cylinder", 
            "primitives" : [
                {
                    "attributes" : {
                        "NORMAL" : 2, 
                        "POSITION" : 1, 
                        "TANGENT" : 3, 
                        "TEXCOORD_0" : 4
                    }, 
                    "indices" : 0, 
                    "material" : 0
                }, 
                {
                    "attributes" : {
                        "NORMAL" : 7, 
                        "POSITION" : 6, 
                        "TANGENT" : 8, 
                        "TEXCOORD_0" : 9
                    }, 
                    "indices" : 5, 
                    "material" : 1
                }
            ]
        }
    ], 
    "nodes" : [
        {
            "mesh" : 0, 
            "name" : "Battery", 
            "scale" : [
                0.03361685201525688, 
                0.03361685201525688, 
                0.03361685201525688
            ]
        }
    ], 
    "samplers" : [
        {}
    ], 
    "scene" : 0, 
    "scenes" : [
        {
            "name" : "Scene", 
            "nodes" : [
                0
            ]
        }
    ], 
    "textures" : [
        {
            "sampler" : 0, 
            "source" : 0
        }
    ]
}
