{
    "accessors" : [
        {
            "bufferView" : 0, 
            "componentType" : 5123, 
            "count" : 1332, 
            "max" : [
                606
            ], 
            "min" : [
                0
            ], 
            "type" : "SCALAR"
        }, 
        {
            "bufferView" : 1, 
            "componentType" : 5126, 
            "count" : 607, 
            "max" : [
                0.8811312913894653, 
                0.18616491556167603, 
                0.8802619576454163
            ], 
            "min" : [
                -0.8809229135513306, 
                -0.1646832525730133, 
                -0.8802904486656189
            ], 
            "type" : "VEC3"
        }, 
        {
            "bufferView" : 2, 
            "componentType" : 5126, 
            "count" : 607, 
            "max" : [
                0.9986289143562317, 
                0.9991024732589722, 
                0.9994856715202332
            ], 
            "min" : [
                -0.9986290335655212, 
                -0.9991025328636169, 
                -0.9994856715202332
            ], 
            "type" : "VEC3"
        }, 
        {
            "bufferView" : 3, 
            "componentType" : 5126, 
            "count" : 607, 
            "max" : [
                0.9914278984069824, 
                0.9675977006554604
            ], 
            "min" : [
                0.012229740619659424, 
                0.012277305126190186
            ], 
            "type" : "VEC2"
        }
    ], 
    "asset" : {
        "generator" : "Khronos Blender glTF 2.0 exporter", 
        "version" : "2.0"
    }, 
    "bufferViews" : [
        {
            "buffer" : 0, 
            "byteLength" : 2664, 
            "byteOffset" : 0, 
            "target" : 34963
        }, 
        {
            "buffer" : 0, 
            "byteLength" : 7284, 
            "byteOffset" : 2664, 
            "target" : 34962
        }, 
        {
            "buffer" : 0, 
            "byteLength" : 7284, 
            "byteOffset" : 9948, 
            "target" : 34962
        }, 
        {
            "buffer" : 0, 
            "byteLength" : 4856, 
            "byteOffset" : 17232, 
            "target" : 34962
        }
    ], 
    "buffers" : [
        {
            "byteLength" : 22088, 
            "uri" : "ManHole.bin"
        }
    ], 
    "images" : [
        {
            "uri" : "WS_CM.png"
        }, 
        {
            "uri" : "WS_NM.png"
        }
    ], 
    "materials" : [
        {
            "name" : "WS_MAT", 
            "normalTexture" : {
                "index" : 1
            }, 
            "pbrMetallicRoughness" : {
                "baseColorFactor" : [
                    0.6400000190734865, 
                    0.6400000190734865, 
                    0.6400000190734865, 
                    1.0
                ], 
                "baseColorTexture" : {
                    "index" : 0
                }, 
                "metallicFactor" : 0.0
            }
        }
    ], 
    "meshes" : [
        {
            "name" : "Shield", 
            "primitives" : [
                {
                    "attributes" : {
                        "NORMAL" : 2, 
                        "POSITION" : 1, 
                        "TEXCOORD_0" : 3
                    }, 
                    "indices" : 0, 
                    "material" : 0
                }
            ]
        }
    ], 
    "nodes" : [
        {
            "mesh" : 0, 
            "name" : "Shield"
        }
    ], 
    "samplers" : [
        {}
    ], 
    "scene" : 0, 
    "scenes" : [
        {
            "name" : "Scene", 
            "nodes" : [
                0
            ]
        }
    ], 
    "textures" : [
        {
            "sampler" : 0, 
            "source" : 0
        }, 
        {
            "sampler" : 0, 
            "source" : 1
        }
    ]
}
